<svg xmlns="http://www.w3.org/2000/svg" width="25" height="17" viewBox="0 0 25 17">
  <path id="Shape_43" data-name="Shape 43" d="M348.053,629A3.022,3.022,0,0,1,345,626.017V615.188A3.36,3.36,0,0,1,348.261,612h18.478A3.312,3.312,0,0,1,370,615.106v10.911A3.022,3.022,0,0,1,366.948,629Zm-1.966-2.984a1.946,1.946,0,0,0,1.966,1.921h18.9a1.945,1.945,0,0,0,1.965-1.921V618.38H346.087Zm22.826-10.3v-.614a2.254,2.254,0,0,0-2.174-2.043H348.261a2.312,2.312,0,0,0-2.174,2.125v.532Z" transform="translate(-345 -612)" fill="#333"/>
</svg>
