<svg xmlns="http://www.w3.org/2000/svg" width="15.001" height="15.001" viewBox="0 0 15.001 15.001">
  <path id="Shape_24" data-name="Shape 24" d="M454.61,1717.39a.3.3,0,0,0-.423,0l-2.686,2.687-2.687-2.687a.3.3,0,0,0-.423.423l2.686,2.687-2.686,2.687a.3.3,0,0,0,.423.423l2.687-2.687,2.686,2.687a.3.3,0,0,0,.423-.423l-2.686-2.687,2.686-2.687A.3.3,0,0,0,454.61,1717.39ZM451.5,1713a7.5,7.5,0,1,0,7.5,7.5A7.509,7.509,0,0,0,451.5,1713Zm0,14.4h0a6.9,6.9,0,1,1,6.9-6.9A6.911,6.911,0,0,1,451.5,1727.4Z" transform="translate(-443.999 -1712.999)" fill="#d24b1f"/>
</svg>
