<svg xmlns="http://www.w3.org/2000/svg" width="15" height="15" viewBox="0 0 15 15">
  <path id="Shape_23" data-name="Shape 23" d="M355,1720.5a7.5,7.5,0,1,1,7.5,7.5A7.5,7.5,0,0,1,355,1720.5Zm.938,0a6.562,6.562,0,1,0,6.563-6.563A6.562,6.562,0,0,0,355.937,1720.5Zm4.829,3.143-2.344-2.3a.467.467,0,0,1,0-.663.477.477,0,0,1,.67,0l2.007,1.967,4.822-4.78a.477.477,0,0,1,.67,0,.467.467,0,0,1,0,.663l-5.156,5.108a.453.453,0,0,1-.324.134A.525.525,0,0,1,360.767,1723.643Z" transform="translate(-355 -1713)" fill="#69cd37"/>
</svg>
