<svg xmlns="http://www.w3.org/2000/svg" width="91.012" height="13.987" viewBox="0 0 91.012 13.987"><defs><style>.a{fill:#fc0;}</style></defs><g transform="translate(-182.994 -1328.006)"><path class="a" d="M192.82,1332.611l-2.32-4.6-2.32,4.6-5.186.738,3.753,3.584-.886,5.061,4.639-2.389,4.639,2.389-.886-5.061,3.753-3.584Z"/><path class="a" d="M211.82,1332.611l-2.32-4.6-2.319,4.6-5.186.738,3.753,3.584-.886,5.061,4.639-2.389,4.639,2.389-.886-5.061,3.753-3.584Z"/><path class="a" d="M230.82,1332.611l-2.319-4.6-2.32,4.6-5.186.738,3.753,3.584-.886,5.061,4.639-2.389,4.639,2.389-.886-5.061,3.753-3.584Z"/><path class="a" d="M249.82,1332.611l-2.32-4.6-2.32,4.6-5.186.738,3.753,3.584-.886,5.061,4.639-2.389,4.639,2.389-.886-5.061,3.753-3.584Z"/><path class="a" d="M268.819,1332.611l-2.319-4.6-2.319,4.6-5.186.738,3.753,3.584-.886,5.061,4.639-2.389,4.639,2.389-.886-5.061,3.753-3.584Z"/></g></svg>