<svg xmlns="http://www.w3.org/2000/svg" width="91.012" height="13.987" viewBox="0 0 91.012 13.987">
  <path id="Shape_18" data-name="Shape 18" d="M295.819,1621.611l-2.319-4.6-2.319,4.6-5.186.738,3.753,3.584-.886,5.061,4.639-2.389,4.639,2.389-.886-5.061,3.753-3.584Z" transform="translate(-285.994 -1617.006)" fill="#fc0"/>
  <path id="Shape_18_copy" data-name="Shape 18 copy" d="M314.819,1621.611l-2.319-4.6-2.319,4.6-5.186.738,3.753,3.584-.886,5.061,4.639-2.389,4.639,2.389-.886-5.061,3.753-3.584Z" transform="translate(-285.994 -1617.006)" fill="#fc0"/>
  <path id="Shape_18_copy_2" data-name="Shape 18 copy 2" d="M333.82,1621.611l-2.32-4.6-2.319,4.6-5.186.738,3.753,3.584-.886,5.061,4.639-2.389,4.639,2.389-.886-5.061,3.753-3.584Z" transform="translate(-285.994 -1617.006)" fill="#fc0"/>
  <path id="Shape_18_copy_3" data-name="Shape 18 copy 3" d="M352.819,1621.611l-2.319-4.6-2.319,4.6-5.186.738,3.753,3.584-.886,5.061,4.639-2.389,4.639,2.389-.886-5.061,3.753-3.584Z" transform="translate(-285.994 -1617.006)" fill="#fc0"/>
  <path id="Shape_18_copy_4" data-name="Shape 18 copy 4" d="M371.819,1621.611l-2.319-4.6-2.319,4.6-5.186.738,3.753,3.584-.886,5.061,4.639-2.389,4.639,2.389-.886-5.061,3.753-3.584Z" transform="translate(-285.994 -1617.006)" fill="#ccc"/>
</svg>
