<svg xmlns="http://www.w3.org/2000/svg" width="35" height="35" viewBox="0 0 35 35"><defs><style>.a{fill:#f2f2f2;}.b{fill:#666;}</style></defs><g transform="translate(-681 -2968)"><circle class="a" cx="17.5" cy="17.5" r="17.5" transform="translate(681 2968)"/><path class="b" d="M692,2990.016a2.994,2.994,0,0,1,1.649-2.545,9.453,9.453,0,0,1,4.093-.961,2.156,2.156,0,0,1-.643-1.417,1.85,1.85,0,0,1,.213-.815c-.237.022-.471.042-.685.042a3.347,3.347,0,0,1-3.556-3.278,3.714,3.714,0,0,1,1.37-2.8,6.663,6.663,0,0,1,4.049-1.247h4.221l-1.393.851h-1.328a3.355,3.355,0,0,1-.278,5.781,1.456,1.456,0,0,0-.6,1.022,1.148,1.148,0,0,0,.557.9l.772.582c.942.772,1.8,1.481,1.8,2.923,0,1.961-1.95,3.942-5.635,3.942C693.5,2993,692,2991.561,692,2990.016Zm3.728-2.586a2.366,2.366,0,0,0-1.841,2.148c0,1.482,1.478,2.548,3.77,2.548,2.056,0,3.15-.962,3.15-2.254,0-1.067-.707-1.629-2.337-2.757a3.558,3.558,0,0,0-.491-.021A8.714,8.714,0,0,0,695.725,2987.43Zm-.3-8.953a2.363,2.363,0,0,0-.471,1.544c0,1.4.835,3.713,2.678,3.713a2.224,2.224,0,0,0,1.456-.583,2.075,2.075,0,0,0,.536-1.524c0-1.5-.922-3.84-2.7-3.84A2.023,2.023,0,0,0,695.425,2978.477Zm9.364,8.366v-2.1h-2.143V2983.7h2.143v-2.086h1.06v2.086H708v1.042h-2.154v2.1Z"/></g></svg>