<svg xmlns="http://www.w3.org/2000/svg" width="50.997" height="50.997" viewBox="0 0 50.997 50.997">
  <path id="Shape_1" data-name="Shape 1" d="M237.493,979.507a25.465,25.465,0,1,1,36.014,0A25.386,25.386,0,0,1,237.493,979.507Zm8.543-.921a19.33,19.33,0,0,0,18.533.132l-4.733-4.732a13.434,13.434,0,0,1-9.07-.131Zm-7.755-8.017,4.732-4.732a13.969,13.969,0,0,1,0-8.675l-4.731-4.731A19.272,19.272,0,0,0,238.282,970.569Zm26.287-26.287a19.075,19.075,0,0,0-18.4.262l4.731,4.731a12.334,12.334,0,0,1,8.938-.263ZM248.4,954.4a10.037,10.037,0,1,0,14.2,0A10,10,0,0,0,248.4,954.4Zm24.184-2.366-4.732,4.732a14.2,14.2,0,0,1,.132,9.333l4.731,4.731A20.214,20.214,0,0,0,272.586,952.036Z" transform="translate(-230.002 -936.001)" fill="#999"/>
</svg>
