<svg xmlns="http://www.w3.org/2000/svg" width="81.929" height="75.997" viewBox="0 0 81.929 75.997">
  <path id="Op_component_1" data-name="Op component 1" d="M879.565,783H810.437a6.417,6.417,0,0,0-6.4,6.415v41.048a6.417,6.417,0,0,0,6.4,6.415h32.471v-2.568H810.437a3.85,3.85,0,0,1-3.84-3.848V789.417a3.843,3.843,0,0,1,3.84-3.848h69.128a3.843,3.843,0,0,1,3.84,3.848v26.019a21.209,21.209,0,0,1,2.559,0V789.417A6.416,6.416,0,0,0,879.565,783Z" transform="translate(-804.036 -783.002)" fill="#78cfcf"/>
  <rect id="Op_component_2" data-name="Op component 2" width="6.4" height="3.48" transform="translate(8.964 14.418)" fill="#78cfcf"/>
  <path id="Op_component_3" data-name="Op component 3" d="M0,0H6.11A2.56,2.56,0,0,1,8.67,2.56V3.71a0,0,0,0,1,0,0H0a0,0,0,0,1,0,0V0A0,0,0,0,1,0,0Z" transform="translate(8.964 20.188)" fill="#78cfcf"/>
  <path id="Op_component_4" data-name="Op component 4" d="M833.48,795.149v-1.085a2.561,2.561,0,0,0-2.561-2.564H824.8v3.649Z" transform="translate(-804.036 -783.002)" fill="#78cfcf"/>
  <path id="Op_component_5" data-name="Op component 5" d="M821.67,791.5h-6.113A2.56,2.56,0,0,0,813,794.064v1.085h8.674Z" transform="translate(-804.036 -783.002)" fill="#78cfcf"/>
  <rect id="Op_component_6" data-name="Op component 6" width="6.4" height="3.48" transform="translate(23.044 14.418)" fill="#78cfcf"/>
  <path id="Op_component_7" data-name="Op component 7" d="M824.8,806.891h6.122a2.561,2.561,0,0,0,2.561-2.564v-1.141H824.8Z" transform="translate(-804.036 -783.002)" fill="#78cfcf"/>
  <path id="Op_component_8" data-name="Op component 8" d="M841.16,826.614H814.4a1.284,1.284,0,0,1,0-2.567H841.16a1.284,1.284,0,0,1,0,2.567Z" transform="translate(-804.036 -783.002)" fill="#78cfcf"/>
  <path id="Op_component_9" data-name="Op component 9" d="M847.56,814.2h-12.8a1.282,1.282,0,0,0,0,2.564h12.8a1.282,1.282,0,0,0,0-2.564Z" transform="translate(-804.036 -783.002)" fill="#78cfcf"/>
  <path id="Op_component_10" data-name="Op component 10" d="M827.57,814.2h-13a1.282,1.282,0,0,0,0,2.564h13a1.282,1.282,0,0,0,0-2.564Z" transform="translate(-804.036 -783.002)" fill="#78cfcf"/>
  <path id="Op_component_11" data-name="Op component 11" d="M879.456,859h-26.19a6.524,6.524,0,0,1-6.517-6.534V820.982a1.275,1.275,0,0,1,1.28-1.277h36.656a1.27,1.27,0,0,1,1.279,1.277v31.482A6.525,6.525,0,0,1,879.456,859Zm-30.148-36.733v30.2a3.968,3.968,0,0,0,3.958,3.974h26.19a3.966,3.966,0,0,0,3.949-3.974v-30.2Z" transform="translate(-804.036 -783.002)" fill="#78cfcf"/>
  <path id="Op_component_12" data-name="Op component 12" d="M878.764,822.266a1.28,1.28,0,0,1-1.28-1.284V812.42a11.126,11.126,0,1,0-22.251,0v8.561a1.276,1.276,0,1,1-2.551,0V812.42a13.682,13.682,0,1,1,27.363,0v8.561A1.286,1.286,0,0,1,878.764,822.266Z" transform="translate(-804.036 -783.002)" fill="#78cfcf"/>
  <path id="Op_component_13" data-name="Op component 13" d="M866.355,849.372a4.338,4.338,0,0,1-4.337-4.325v-4.329a6.523,6.523,0,1,1,8.669,0v4.329A4.337,4.337,0,0,1,866.355,849.372Zm0-17.477a3.957,3.957,0,0,0-2.3,7.172l.528.384v5.6a1.774,1.774,0,0,0,3.547,0v-5.6l.525-.384a3.951,3.951,0,0,0-2.3-7.172Z" transform="translate(-804.036 -783.002)" fill="#78cfcf"/>
</svg>
