<svg xmlns="http://www.w3.org/2000/svg" width="89.922" height="69.018" viewBox="0 0 89.922 69.018">
  <path id="Op_component_1" data-name="Op component 1" d="M1119.519,856.009a9.858,9.858,0,1,1,9.837-9.863A9.856,9.856,0,0,1,1119.519,856.009Zm0-16.9a7.043,7.043,0,1,0,7.026,7.037A7.04,7.04,0,0,0,1119.519,839.109Z" transform="translate(-1097.039 -786.991)" fill="#78cfcf"/>
  <path id="Op_component_2" data-name="Op component 2" d="M1164.349,856.009a9.858,9.858,0,1,1,9.831-9.863A9.857,9.857,0,0,1,1164.349,856.009Zm0-16.9a7.043,7.043,0,1,0,7.025,7.037A7.039,7.039,0,0,0,1164.349,839.109Z" transform="translate(-1097.039 -786.991)" fill="#78cfcf"/>
  <path id="Op_component_3" data-name="Op component 3" d="M1175.716,815.871h-7.029a5.983,5.983,0,0,1-4.609-1.839,7.726,7.726,0,0,1-1.713-5.311l-.069-15.374a1.4,1.4,0,0,1,1.391-1.41h.013a1.4,1.4,0,0,1,1.4,1.4l.058,15.472a5,5,0,0,0,.986,3.318,3.315,3.315,0,0,0,2.547.925h7.02a1.408,1.408,0,1,1,0,2.816Z" transform="translate(-1097.039 -786.991)" fill="#78cfcf"/>
  <path id="Op_component_4" data-name="Op component 4" d="M1179.931,847.559h-4.342v-1.413a11.243,11.243,0,1,0-22.485,0v1.413H1130.76v-1.413a11.24,11.24,0,1,0-22.48,0v1.413h-4.215c-2.433,0-7.026-1.763-7.026-8.45V819.542H1133.7v7.8a.585.585,0,0,0,.48-.178l12.447-12.5a.6.6,0,0,0,.184-.441.626.626,0,0,0-.175-.433l-12.462-12.486a.6.6,0,0,0-.474-.186v7.886h-36.662V794.049c0-5.2,3.372-7.058,6.534-7.058a5.245,5.245,0,0,1,.667.036l48.737-.018c8.914,0,16.25,8.265,22.436,16.012,3.216,4.021,11.548,16.328,11.548,24.822v12.675A7.042,7.042,0,0,1,1179.931,847.559Zm-1.6-2.816h1.6a4.224,4.224,0,0,0,4.215-4.225V827.843c0-6.461-6.388-17.37-10.929-23.063-5.769-7.234-12.574-14.955-20.241-14.955h-48.912c-.195-.007-.316-.011-.492-.011-1.7,0-3.723.725-3.723,4.236v12.14h31.043v-6.461l.4-.408a3.522,3.522,0,0,1,4.866-.015l12.451,12.49a3.439,3.439,0,0,1,0,4.87l-12.443,12.49a3.535,3.535,0,0,1-4.864,0l-.413-.408v-6.388H1099.85v16.751c0,5.558,4.048,5.634,4.215,5.634h1.475a14.047,14.047,0,0,1,27.96,0h16.861a14.052,14.052,0,0,1,27.969,0Z" transform="translate(-1097.039 -786.991)" fill="#78cfcf"/>
</svg>
