<svg xmlns="http://www.w3.org/2000/svg" width="79.874" height="79.998" viewBox="0 0 79.874 79.998">
  <path id="Op_component_1" data-name="Op component 1" d="M260.486,836.78a1.247,1.247,0,0,1-1.018-.546L242.6,811.168a20.784,20.784,0,0,1,3.239-25.095,20.712,20.712,0,0,1,29.3,0,20.746,20.746,0,0,1,3.271,25.018l-16.9,25.143A1.258,1.258,0,0,1,260.486,836.78Zm0-54.311A18.244,18.244,0,0,0,244.7,809.853l15.786,23.476,15.84-23.54a18.245,18.245,0,0,0-15.84-27.32Z" transform="translate(-220.548 -779.501)" fill="#78cfcf" stroke="rgba(0,0,0,0)" stroke-miterlimit="10" stroke-width="1"/>
  <path id="Op_component_2" data-name="Op component 2" d="M260.486,811.969a11.24,11.24,0,1,1,7.952-3.291A11.154,11.154,0,0,1,260.486,811.969Zm0-20.01a8.771,8.771,0,0,0-6.19,14.972,8.983,8.983,0,0,0,12.4,0,8.77,8.77,0,0,0-6.21-14.972Z" transform="translate(-220.548 -779.501)" fill="#78cfcf"/>
  <path id="Op_component_3" data-name="Op component 3" d="M299.02,851.222s-5.313-15.9-8.427-25.319c-1.072-3.246-3.609-4.862-7.9-6.681l-3.864-1.749-1.4,2.082,4.279,1.928c4.247,1.813,5.836,3.071,6.538,5.194,3.118,9.427,8.431,25.334,8.443,25.341,1.164,3.438.727,4.2.689,4.268-.147.175-1.11.278-3.81-.961L276.8,847.162a1.225,1.225,0,0,0-1.11.013l-15.215,7.885-16.019-7.9a1.206,1.206,0,0,0-1.1.013l-15.955,8.15c-2.907,1.414-3.82,1.162-3.826,1.162-.022-.026-.523-.661.718-4.476,0,0,5.319-15.907,8.437-25.334.686-2.062,2.036-3.135,6.57-5.21l4.263-1.9-1.4-2.085-3.887,1.737c-4.627,2.123-6.864,3.588-7.882,6.681-3.114,9.421-8.443,25.319-8.443,25.331-1.132,3.492-1.241,5.5-.37,6.7A2.686,2.686,0,0,0,223.873,859a11.519,11.519,0,0,0,4.633-1.456l15.425-7.894,16.015,7.894a1.214,1.214,0,0,0,1.11-.013l15.224-7.882,16.245,7.917a11.249,11.249,0,0,0,4.429,1.277,2.822,2.822,0,0,0,2.419-1.114C300.255,856.493,300.156,854.542,299.02,851.222Z" transform="translate(-220.548 -779.501)" fill="#78cfcf" stroke="rgba(0,0,0,0)" stroke-miterlimit="10" stroke-width="1"/>
</svg>
