<svg xmlns="http://www.w3.org/2000/svg" width="73.936" height="73.936" viewBox="0 0 73.936 73.936">
  <path id="Op_component_1" data-name="Op component 1" d="M588.235,855.968h-70.47a1.155,1.155,0,0,1,0-2.31h70.47a1.155,1.155,0,1,1,0,2.31Z" transform="translate(-516.032 -782.032)" fill="#78cfcf"/>
  <path id="Op_component_2" data-name="Op component 2" d="M537.981,839.153a1.738,1.738,0,0,1-1.733-1.733v-8.906a1.733,1.733,0,1,1,3.466,0v8.906A1.733,1.733,0,0,1,537.981,839.153Z" transform="translate(-516.032 -782.032)" fill="#78cfcf"/>
  <path id="Op_component_3" data-name="Op component 3" d="M564.553,849.189a1.158,1.158,0,0,1-.816-1.972l11.552-11.483a1.157,1.157,0,0,1,1.631,1.642l-11.552,11.47A1.17,1.17,0,0,1,564.553,849.189Z" transform="translate(-516.032 -782.032)" fill="#78cfcf"/>
  <path id="Op_component_4" data-name="Op component 4" d="M570.33,849.181a1.192,1.192,0,0,1-.828-.339,1.16,1.16,0,0,1,.012-1.636l5.775-5.744a1.151,1.151,0,0,1,1.631.008,1.164,1.164,0,0,1,0,1.636l-5.775,5.736A1.148,1.148,0,0,1,570.33,849.181Z" transform="translate(-516.032 -782.032)" fill="#78cfcf"/>
  <path id="Op_component_5" data-name="Op component 5" d="M521.815,854.344a1.152,1.152,0,0,0,2.3,0V824.164a12.893,12.893,0,0,1-2.3-.52Z" transform="translate(-516.032 -782.032)" fill="#78cfcf"/>
  <path id="Op_component_6" data-name="Op component 6" d="M542.784,824.182v30.163a1.151,1.151,0,0,0,2.3,0V824.192c-.375.036-.732.1-1.1.1A11.933,11.933,0,0,1,542.784,824.182Z" transform="translate(-516.032 -782.032)" fill="#78cfcf"/>
  <path id="Op_component_7" data-name="Op component 7" d="M581.881,854.344a1.152,1.152,0,0,0,2.3,0v-30.7a12.87,12.87,0,0,1-2.3.52Z" transform="translate(-516.032 -782.032)" fill="#78cfcf"/>
  <path id="Op_component_8" data-name="Op component 8" d="M583.984,782.032H522.018L516.032,808.8v2.138a9.89,9.89,0,0,0,18.924,4.029,9.871,9.871,0,0,0,18.044,0,9.87,9.87,0,0,0,18.043,0,9.89,9.89,0,0,0,18.924-4.029v-2.13Zm-50.47,28.9a7.585,7.585,0,0,1-15.17,0V810.2h15.17Zm.291-3.083H518.66l5.249-23.488h11.559Zm17.759,3.083a7.585,7.585,0,0,1-15.17,0V810.2h15.17Zm.069-3.091H536.267l1.666-23.473h13.7Zm17.974,3.091a7.584,7.584,0,1,1-15.169,0v-.708h15.169Zm-15.515-3.112V784.379h13.978l1.833,23.445Zm16.376-23.463H582.1l5.253,23.491H572.31Zm17.191,26.574a7.585,7.585,0,0,1-15.17,0v-.708h0V810.2h15.17Z" transform="translate(-516.032 -782.032)" fill="#78cfcf"/>
</svg>
