<svg xmlns="http://www.w3.org/2000/svg" width="35" height="35" viewBox="0 0 35 35"><defs><style>.a{fill:#f2f2f2;}.b{fill:#666;}</style></defs><g transform="translate(-732 -2968)"><circle class="a" cx="17.5" cy="17.5" r="17.5" transform="translate(732 2968)"/><path class="b" d="M745.749,2993a3.745,3.745,0,0,1-3.749-3.734v-5.11h4.353a3.522,3.522,0,0,0-.338,1.507,3.561,3.561,0,1,0,6.783-1.507H757v5.11a3.746,3.746,0,0,1-3.749,3.734Zm2.361-7.34a1.47,1.47,0,1,1,1.471,1.479A1.476,1.476,0,0,1,748.11,2985.66Zm6.324-2.886h-2.8a3.558,3.558,0,0,0-4.12,0H742v-1.04a3.744,3.744,0,0,1,3.749-3.733h7.5a3.745,3.745,0,0,1,3.749,3.733v1.04Zm-1.785-2.5v1.282a.417.417,0,0,0,.417.415h1.286a.417.417,0,0,0,.417-.415v-1.282a.417.417,0,0,0-.417-.415h-1.286A.417.417,0,0,0,752.649,2980.269Z"/></g></svg>