<svg xmlns="http://www.w3.org/2000/svg" width="190.529" height="35" viewBox="0 0 190.529 35"><defs><style>.a{fill:#fff;}.b{fill:#fefef9;font-size:25.97px;font-family:SegoeUI, Segoe UI;letter-spacing:-0.025em;}</style></defs><g transform="translate(-18.999 -17.164)"><path class="a" d="M42.1,47a.684.684,0,0,1,0-1.368H77.326a.684.684,0,0,1,0,1.368Zm.447-2.413a.68.68,0,0,1-.676-.684A18.107,18.107,0,0,1,47.1,31.136a17.689,17.689,0,0,1,25.229,0A18.106,18.106,0,0,1,77.554,43.9a.68.68,0,0,1-.676.684Zm5.5-12.484a16.73,16.73,0,0,0-4.815,11.116H76.189A16.731,16.731,0,0,0,71.374,32.1a16.351,16.351,0,0,0-23.318,0Zm-28.382,3.86a.684.684,0,0,1,0-1.367H38.523a.684.684,0,0,1,0,1.367Zm28.081-.315a.686.686,0,0,1-.135-.954,15.155,15.155,0,0,1,5.335-4.5,14.948,14.948,0,0,1,6.76-1.607.681.681,0,0,1,0,1.362,13.635,13.635,0,0,0-6.158,1.468,13.792,13.792,0,0,0-4.86,4.095.67.67,0,0,1-.539.273A.663.663,0,0,1,47.755,35.648ZM23.468,32.526a.684.684,0,0,1,0-1.368H42.316a.684.684,0,0,1,0,1.368Zm3.794-3.438a.684.684,0,0,1,0-1.368H46.111a.684.684,0,0,1,0,1.368Zm31.022-3.64a1.43,1.43,0,1,1,2.86,0Z"/><text class="b" transform="translate(146.528 45.164)"><tspan x="-62.573" y="0">Quick Food</tspan></text></g></svg>