<svg xmlns="http://www.w3.org/2000/svg" width="9.994" height="14.005" viewBox="0 0 9.994 14.005">
  <path id="Shape_41" data-name="Shape 41" d="M136,369.2a2.285,2.285,0,1,0-2.323-2.285A2.307,2.307,0,0,0,136,369.2Zm0-3.693a1.408,1.408,0,1,1-1.431,1.408A1.421,1.421,0,0,1,136,365.5Zm-.324,10.283a.8.8,0,0,0,.217.171h0a.247.247,0,0,0,.28,0h0a.8.8,0,0,0,.217-.171s4.143-4.432,4.559-8.272a4.774,4.774,0,0,0,.042-.6,5,5,0,0,0-9.994,0,4.756,4.756,0,0,0,.043.611C131.473,371.361,135.676,375.787,135.676,375.787ZM136,362.874a4.076,4.076,0,0,1,4.106,4.038,3.918,3.918,0,0,1-.037.51c-.319,2.942-3.128,6.395-4.033,7.445-.928-1.052-3.777-4.5-4.106-7.452a4.034,4.034,0,0,1-.036-.5A4.076,4.076,0,0,1,136,362.874Z" transform="translate(-131.003 -361.997)" fill="#999"/>
</svg>
