<svg xmlns="http://www.w3.org/2000/svg" width="76" height="68" viewBox="0 0 76 68">
  <path id="Op_component_1" data-name="Op component 1" d="M735.95,2349.5h-3.664v-8.687c0-.814-.271-.814-1.086-.814H678.95c-.814,0-.95,0-.95.814v63.25a3.7,3.7,0,0,0,3.936,3.936H728.35a3.7,3.7,0,0,0,3.936-3.936V2393.07h3.257A18.336,18.336,0,0,0,754,2374.475v-6.244C754,2358.052,746.129,2349.5,735.95,2349.5Zm15.336,24.974a15.5,15.5,0,0,1-15.743,15.744H731.2c-.814,0-1.629,1.222-1.629,2.036v11.808a1.08,1.08,0,0,1-1.221,1.221H681.936c-.814,0-1.221-.271-1.221-1.221v-61.349h48.857v8.415c0,.814.95,1.086,1.629,1.086h4.75c8.686,0,15.336,7.329,15.336,16.152Z" transform="translate(-678 -2340)" fill="#fff"/>
  <path id="Op_component_2" data-name="Op component 2" d="M735.543,2356.288h-3.529c-.814,0-1.086,1.086-1.086,1.9v26.331c0,.814.271,1.764,1.086,1.764h3.529a12.063,12.063,0,0,0,11.671-11.808V2368.5C747.214,2361.988,741.786,2356.288,735.543,2356.288Zm8.957,18.052a9.248,9.248,0,0,1-8.957,9.094h-1.9V2359h1.9c4.75,0,8.957,4.479,8.957,9.365Z" transform="translate(-678 -2340)" fill="#fff"/>
</svg>
