<svg xmlns="http://www.w3.org/2000/svg" width="35" height="35" viewBox="0 0 35 35"><defs><style>.a{fill:#f2f2f2;}.b{fill:#666;}</style></defs><g transform="translate(-632 -2968)"><circle class="a" cx="17.5" cy="17.5" r="17.5" transform="translate(632 2968)"/><path class="b" d="M659,2980.661a6.877,6.877,0,0,1-2,.556,3.532,3.532,0,0,0,1.534-1.954,6.929,6.929,0,0,1-2.215.858,3.465,3.465,0,0,0-2.546-1.116,3.511,3.511,0,0,0-3.489,3.532,3.579,3.579,0,0,0,.09.8,9.866,9.866,0,0,1-7.191-3.69,3.566,3.566,0,0,0,1.08,4.716,3.448,3.448,0,0,1-1.58-.442c0,.015,0,.03,0,.045a3.524,3.524,0,0,0,2.8,3.463,3.479,3.479,0,0,1-.919.124,3.418,3.418,0,0,1-.656-.063,3.5,3.5,0,0,0,3.259,2.453,6.976,6.976,0,0,1-5.165,1.463,9.784,9.784,0,0,0,5.348,1.587,9.924,9.924,0,0,0,9.926-10.049q0-.23-.01-.458A7.106,7.106,0,0,0,659,2980.661Z"/></g></svg>